<svg width="458" height="128" viewBox="0 0 458 128" fill="none" xmlns="http://www.w3.org/2000/svg">
<mask id="mask0" style="mask-type:alpha" maskUnits="userSpaceOnUse" x="0" y="0" width="458" height="128">
<rect width="458" height="128" fill="#C4C4C4"/>
</mask>
<g mask="url(#mask0)">
<path d="M190.96 14V56H184.54L161.38 27.56V56H153.64V14H160.06L183.22 42.44V14H190.96ZM215.894 56.42C212.654 56.42 209.734 55.72 207.134 54.32C204.534 52.92 202.494 50.98 201.014 48.5C199.574 45.98 198.854 43.14 198.854 39.98C198.854 36.82 199.574 34 201.014 31.52C202.494 29.04 204.534 27.1 207.134 25.7C209.734 24.3 212.654 23.6 215.894 23.6C219.174 23.6 222.114 24.3 224.714 25.7C227.314 27.1 229.334 29.04 230.774 31.52C232.254 34 232.994 36.82 232.994 39.98C232.994 43.14 232.254 45.98 230.774 48.5C229.334 50.98 227.314 52.92 224.714 54.32C222.114 55.72 219.174 56.42 215.894 56.42ZM215.894 50C218.654 50 220.934 49.08 222.734 47.24C224.534 45.4 225.434 42.98 225.434 39.98C225.434 36.98 224.534 34.56 222.734 32.72C220.934 30.88 218.654 29.96 215.894 29.96C213.134 29.96 210.854 30.88 209.054 32.72C207.294 34.56 206.414 36.98 206.414 39.98C206.414 42.98 207.294 45.4 209.054 47.24C210.854 49.08 213.134 50 215.894 50ZM247.306 28.64C249.466 25.28 253.266 23.6 258.706 23.6V30.74C258.066 30.62 257.486 30.56 256.966 30.56C254.046 30.56 251.766 31.42 250.126 33.14C248.486 34.82 247.666 37.26 247.666 40.46V56H240.166V23.96H247.306V28.64ZM296.155 11.48V56H288.955V51.86C287.715 53.38 286.175 54.52 284.335 55.28C282.535 56.04 280.535 56.42 278.335 56.42C275.255 56.42 272.475 55.74 269.995 54.38C267.555 53.02 265.635 51.1 264.235 48.62C262.835 46.1 262.135 43.22 262.135 39.98C262.135 36.74 262.835 33.88 264.235 31.4C265.635 28.92 267.555 27 269.995 25.64C272.475 24.28 275.255 23.6 278.335 23.6C280.455 23.6 282.395 23.96 284.155 24.68C285.915 25.4 287.415 26.48 288.655 27.92V11.48H296.155ZM279.235 50C281.035 50 282.655 49.6 284.095 48.8C285.535 47.96 286.675 46.78 287.515 45.26C288.355 43.74 288.775 41.98 288.775 39.98C288.775 37.98 288.355 36.22 287.515 34.7C286.675 33.18 285.535 32.02 284.095 31.22C282.655 30.38 281.035 29.96 279.235 29.96C277.435 29.96 275.815 30.38 274.375 31.22C272.935 32.02 271.795 33.18 270.955 34.7C270.115 36.22 269.695 37.98 269.695 39.98C269.695 41.98 270.115 43.74 270.955 45.26C271.795 46.78 272.935 47.96 274.375 48.8C275.815 49.6 277.435 50 279.235 50Z" fill="#93C11F"/>
<path d="M166.66 116.6C163.42 116.6 160.28 116.14 157.24 115.22C154.24 114.3 151.86 113.08 150.1 111.56L152.8 105.5C154.52 106.86 156.62 107.98 159.1 108.86C161.62 109.7 164.14 110.12 166.66 110.12C169.78 110.12 172.1 109.62 173.62 108.62C175.18 107.62 175.96 106.3 175.96 104.66C175.96 103.46 175.52 102.48 174.64 101.72C173.8 100.92 172.72 100.3 171.4 99.86C170.08 99.42 168.28 98.92 166 98.36C162.8 97.6 160.2 96.84 158.2 96.08C156.24 95.32 154.54 94.14 153.1 92.54C151.7 90.9 151 88.7 151 85.94C151 83.62 151.62 81.52 152.86 79.64C154.14 77.72 156.04 76.2 158.56 75.08C161.12 73.96 164.24 73.4 167.92 73.4C170.48 73.4 173 73.72 175.48 74.36C177.96 75 180.1 75.92 181.9 77.12L179.44 83.18C177.6 82.1 175.68 81.28 173.68 80.72C171.68 80.16 169.74 79.88 167.86 79.88C164.78 79.88 162.48 80.4 160.96 81.44C159.48 82.48 158.74 83.86 158.74 85.58C158.74 86.78 159.16 87.76 160 88.52C160.88 89.28 161.98 89.88 163.3 90.32C164.62 90.76 166.42 91.26 168.7 91.82C171.82 92.54 174.38 93.3 176.38 94.1C178.38 94.86 180.08 96.04 181.48 97.64C182.92 99.24 183.64 101.4 183.64 104.12C183.64 106.44 183 108.54 181.72 110.42C180.48 112.3 178.58 113.8 176.02 114.92C173.46 116.04 170.34 116.6 166.66 116.6ZM205.054 116.42C201.814 116.42 198.894 115.72 196.294 114.32C193.694 112.92 191.654 110.98 190.174 108.5C188.734 105.98 188.014 103.14 188.014 99.98C188.014 96.82 188.734 94 190.174 91.52C191.654 89.04 193.694 87.1 196.294 85.7C198.894 84.3 201.814 83.6 205.054 83.6C208.334 83.6 211.274 84.3 213.874 85.7C216.474 87.1 218.494 89.04 219.934 91.52C221.414 94 222.154 96.82 222.154 99.98C222.154 103.14 221.414 105.98 219.934 108.5C218.494 110.98 216.474 112.92 213.874 114.32C211.274 115.72 208.334 116.42 205.054 116.42ZM205.054 110C207.814 110 210.094 109.08 211.894 107.24C213.694 105.4 214.594 102.98 214.594 99.98C214.594 96.98 213.694 94.56 211.894 92.72C210.094 90.88 207.814 89.96 205.054 89.96C202.294 89.96 200.014 90.88 198.214 92.72C196.454 94.56 195.574 96.98 195.574 99.98C195.574 102.98 196.454 105.4 198.214 107.24C200.014 109.08 202.294 110 205.054 110ZM242.346 77.12C239.186 77.12 237.606 78.84 237.606 82.28V84.2H246.426V90.2H237.846V116H230.346V90.2H225.066V84.2H230.346V82.16C230.346 78.72 231.346 76.02 233.346 74.06C235.346 72.06 238.166 71.06 241.806 71.06C244.686 71.06 246.946 71.64 248.586 72.8L246.486 78.44C245.206 77.56 243.826 77.12 242.346 77.12ZM270.735 114.26C269.855 114.98 268.775 115.52 267.495 115.88C266.255 116.24 264.935 116.42 263.535 116.42C260.015 116.42 257.295 115.5 255.375 113.66C253.455 111.82 252.495 109.14 252.495 105.62V90.2H247.215V84.2H252.495V76.88H259.995V84.2H268.575V90.2H259.995V105.44C259.995 107 260.375 108.2 261.135 109.04C261.895 109.84 262.995 110.24 264.435 110.24C266.115 110.24 267.515 109.8 268.635 108.92L270.735 114.26ZM326.298 83.96L314.478 116H307.278L298.998 93.92L290.598 116H283.398L271.638 83.96H278.718L287.178 107.6L295.998 83.96H302.298L310.938 107.72L319.638 83.96H326.298ZM344.976 116.42C341.736 116.42 338.816 115.72 336.216 114.32C333.616 112.92 331.576 110.98 330.096 108.5C328.656 105.98 327.936 103.14 327.936 99.98C327.936 96.82 328.656 94 330.096 91.52C331.576 89.04 333.616 87.1 336.216 85.7C338.816 84.3 341.736 83.6 344.976 83.6C348.256 83.6 351.196 84.3 353.796 85.7C356.396 87.1 358.416 89.04 359.856 91.52C361.336 94 362.076 96.82 362.076 99.98C362.076 103.14 361.336 105.98 359.856 108.5C358.416 110.98 356.396 112.92 353.796 114.32C351.196 115.72 348.256 116.42 344.976 116.42ZM344.976 110C347.736 110 350.016 109.08 351.816 107.24C353.616 105.4 354.516 102.98 354.516 99.98C354.516 96.98 353.616 94.56 351.816 92.72C350.016 90.88 347.736 89.96 344.976 89.96C342.216 89.96 339.936 90.88 338.136 92.72C336.376 94.56 335.496 96.98 335.496 99.98C335.496 102.98 336.376 105.4 338.136 107.24C339.936 109.08 342.216 110 344.976 110ZM376.388 88.64C378.548 85.28 382.348 83.6 387.788 83.6V90.74C387.148 90.62 386.568 90.56 386.048 90.56C383.128 90.56 380.848 91.42 379.208 93.14C377.568 94.82 376.748 97.26 376.748 100.46V116H369.248V83.96H376.388V88.64ZM407.23 102.26L401.65 107.54V116H394.15V71.48H401.65V98.36L417.19 83.96H426.19L412.81 97.4L427.45 116H418.33L407.23 102.26ZM441.199 116.42C438.599 116.42 436.059 116.08 433.579 115.4C431.099 114.72 429.119 113.86 427.639 112.82L430.519 107.12C431.959 108.08 433.679 108.86 435.679 109.46C437.719 110.02 439.719 110.3 441.679 110.3C446.159 110.3 448.399 109.12 448.399 106.76C448.399 105.64 447.819 104.86 446.659 104.42C445.539 103.98 443.719 103.56 441.199 103.16C438.559 102.76 436.399 102.3 434.719 101.78C433.079 101.26 431.639 100.36 430.399 99.08C429.199 97.76 428.599 95.94 428.599 93.62C428.599 90.58 429.859 88.16 432.379 86.36C434.939 84.52 438.379 83.6 442.699 83.6C444.899 83.6 447.099 83.86 449.299 84.38C451.499 84.86 453.299 85.52 454.699 86.36L451.819 92.06C449.099 90.46 446.039 89.66 442.639 89.66C440.439 89.66 438.759 90 437.599 90.68C436.479 91.32 435.919 92.18 435.919 93.26C435.919 94.46 436.519 95.32 437.719 95.84C438.959 96.32 440.859 96.78 443.419 97.22C445.979 97.62 448.079 98.08 449.719 98.6C451.359 99.12 452.759 100 453.919 101.24C455.119 102.48 455.719 104.24 455.719 106.52C455.719 109.52 454.419 111.92 451.819 113.72C449.219 115.52 445.679 116.42 441.199 116.42Z" fill="#111111"/>
<path d="M0 20C0 8.9543 8.95431 0 20 0H108C119.046 0 128 8.95431 128 20V108C128 119.046 119.046 128 108 128H20C8.9543 128 0 119.046 0 108V20Z" fill="#93C11F"/>
<path d="M90.131 93H79.4256L50.9339 54.3048C50.9364 54.9776 50.9364 55.6404 50.9364 56.2767V93H39V33.5105H49.7045L78.1962 72.2048C78.1937 71.5196 78.1937 70.8328 78.1937 70.1525V21.2356H69.1085L84.0338 0L98.959 21.2356H90.131V93ZM80.7836 90.3139H87.4449V18.5496H93.7885L84.0338 4.67121L74.2791 18.5496H80.8798V70.1525C80.8798 72.253 80.8798 74.4256 80.9603 76.3443L81.1445 80.7384L48.3465 36.1966H41.6861V90.3139H48.2503V56.2767C48.2503 54.2161 48.2503 52.085 48.1707 50.1654L47.9882 45.7737L80.7836 90.3139Z" stroke="white" stroke-width="4" stroke-linejoin="round"/>
<path d="M96.3733 19.8934L84.0338 2.33594L71.6942 19.8934H79.5376V70.1533C79.5376 72.2637 79.5376 74.4545 79.6189 76.4023L49.0259 34.8551H40.343V91.6577H49.5933V56.2774C49.5933 54.2484 49.5933 52.0575 49.5129 50.1105L80.105 91.6577H88.7879V19.8934H96.3733Z" fill="white" stroke="white" stroke-width="4" stroke-linejoin="round"/>
</g>
</svg>
