<svg width="128" height="128" viewBox="0 0 128 128" fill="none" xmlns="http://www.w3.org/2000/svg">
<path d="M0 20C0 8.9543 8.95431 0 20 0H108C119.046 0 128 8.95431 128 20V108C128 119.046 119.046 128 108 128H20C8.9543 128 0 119.046 0 108V20Z" fill="#93C11F"/>
<mask id="mask0" style="mask-type:alpha" maskUnits="userSpaceOnUse" x="0" y="0" width="128" height="128">
<rect width="128" height="128" fill="#C4C4C4"/>
</mask>
<g mask="url(#mask0)">
<path d="M90.131 93H79.4256L50.9339 54.3048C50.9364 54.9776 50.9364 55.6404 50.9364 56.2767V93H39V33.5105H49.7045L78.1962 72.2048C78.1937 71.5196 78.1937 70.8328 78.1937 70.1525V21.2356H69.1085L84.0338 0L98.959 21.2356H90.131V93ZM80.7836 90.3139H87.4449V18.5496H93.7885L84.0338 4.67121L74.2791 18.5496H80.8798V70.1525C80.8798 72.253 80.8798 74.4256 80.9603 76.3443L81.1445 80.7384L48.3465 36.1966H41.6861V90.3139H48.2503V56.2767C48.2503 54.2161 48.2503 52.085 48.1707 50.1654L47.9882 45.7737L80.7836 90.3139Z" stroke="white" stroke-width="4" stroke-linejoin="round"/>
<path d="M96.3733 19.8934L84.0338 2.33594L71.6942 19.8934H79.5376V70.1533C79.5376 72.2637 79.5376 74.4545 79.6189 76.4023L49.0259 34.8551H40.343V91.6577H49.5933V56.2774C49.5933 54.2484 49.5933 52.0575 49.5129 50.1105L80.105 91.6577H88.7879V19.8934H96.3733Z" fill="white" stroke="white" stroke-width="4" stroke-linejoin="round"/>
</g>
</svg>
